<svg xmlns="http://www.w3.org/2000/svg">

  <!--

    Icons created by Samuel Bradshaw or adapted from the following sources:

    Google’s material design icons: https://material.io/
    License: https://www.apache.org/licenses/LICENSE-2.0.html

    Unofficial material design icons: http://dev.materialdesignicons.com/
    License: http://dev.materialdesignicons.com/license

  -->

  <!-- http://dev.materialdesignicons.com/icon/close (24dp) -->
  <symbol id="close" viewBox="0 0 24 24">
    <title>Close</title>
    <path d="M19,6.41L17.59,5L12,10.59L6.41,5L5,6.41L10.59,12L5,17.59L6.41,19L12,13.41L17.59,19L19,17.59L13.41,12L19,6.41Z"/>
  </symbol>

  <!-- http://dev.materialdesignicons.com/icon/cog-outline (24dp) -->
  <symbol id="settings" viewBox="0 0 24 24">
    <title>Settings</title>
    <path d="M12,8A4,4 0 0,1 16,12A4,4 0 0,1 12,16A4,4 0 0,1 8,12A4,4 0 0,1 12,8M12,10A2,2 0 0,0 10,12A2,2 0 0,0 12,14A2,2 0 0,0 14,12A2,2 0 0,0 12,10M10,22C9.75,22 9.54,21.82 9.5,21.58L9.13,18.93C8.5,18.68 7.96,18.34 7.44,17.94L4.95,18.95C4.73,19.03 4.46,18.95 4.34,18.73L2.34,15.27C2.21,15.05 2.27,14.78 2.46,14.63L4.57,12.97L4.5,12L4.57,11L2.46,9.37C2.27,9.22 2.21,8.95 2.34,8.73L4.34,5.27C4.46,5.05 4.73,4.96 4.95,5.05L7.44,6.05C7.96,5.66 8.5,5.32 9.13,5.07L9.5,2.42C9.54,2.18 9.75,2 10,2H14C14.25,2 14.46,2.18 14.5,2.42L14.87,5.07C15.5,5.32 16.04,5.66 16.56,6.05L19.05,5.05C19.27,4.96 19.54,5.05 19.66,5.27L21.66,8.73C21.79,8.95 21.73,9.22 21.54,9.37L19.43,11L19.5,12L19.43,13L21.54,14.63C21.73,14.78 21.79,15.05 21.66,15.27L19.66,18.73C19.54,18.95 19.27,19.04 19.05,18.95L16.56,17.95C16.04,18.34 15.5,18.68 14.87,18.93L14.5,21.58C14.46,21.82 14.25,22 14,22H10M11.25,4L10.88,6.61C9.68,6.86 8.62,7.5 7.85,8.39L5.44,7.35L4.69,8.65L6.8,10.2C6.4,11.37 6.4,12.64 6.8,13.8L4.68,15.36L5.43,16.66L7.86,15.62C8.63,16.5 9.68,17.14 10.87,17.38L11.24,20H12.76L13.13,17.39C14.32,17.14 15.37,16.5 16.14,15.62L18.57,16.66L19.32,15.36L17.2,13.81C17.6,12.64 17.6,11.37 17.2,10.2L19.31,8.65L18.56,7.35L16.15,8.39C15.38,7.5 14.32,6.86 13.12,6.62L12.75,4H11.25Z"/>
  </symbol>

  <!-- http://dev.materialdesignicons.com/icon/printer-outline (24dp) -->
  <symbol id="print" viewBox="0 0 24 24">
    <title>Print</title>
    <path d="M19 8C20.66 8 22 9.34 22 11V17H18V21H6V17H2V11C2 9.34 3.34 8 5 8H6V3H18V8H19M8 5V8H16V5H8M16 19V15H8V19H16M18 15H20V11C20 10.45 19.55 10 19 10H5C4.45 10 4 10.45 4 11V15H6V13H18V15M19 11.5C19 12.05 18.55 12.5 18 12.5C17.45 12.5 17 12.05 17 11.5C17 10.95 17.45 10.5 18 10.5C18.55 10.5 19 10.95 19 11.5Z"/>
  </symbol>

</svg>
